<?xml version="1.0" encoding="UTF-8" standalone="no"?>
<!DOCTYPE svg PUBLIC "-//W3C//DTD SVG 1.1//EN" "http://www.w3.org/Graphics/SVG/1.1/DTD/svg11.dtd">
<svg width="100%" height="100%" viewBox="0 0 626 693" version="1.1" xmlns="http://www.w3.org/2000/svg" xmlns:xlink="http://www.w3.org/1999/xlink" xml:space="preserve" xmlns:serif="http://www.serif.com/" style="fill-rule:evenodd;clip-rule:evenodd;stroke-linecap:round;stroke-linejoin:round;stroke-miterlimit:10;">
    <g transform="matrix(1,0,0,1,-2003.82,-1572.07)">
        <g transform="matrix(4.16667,0,0,4.16667,0,0)">
            <g transform="matrix(1,0,0,1,627.221,439.698)">
                <path d="M0,-6.572C3.677,-2.895 3.677,3.067 0,6.744L-25.403,32.148C-29.081,35.825 -35.042,35.825 -38.72,32.148L-74.741,-10.558L-42.902,-42.397L0,-6.572Z" style="fill:none;fill-rule:nonzero;stroke:rgb(50,183,125);stroke-width:1.91px;"/>
            </g>
        </g>
        <g transform="matrix(4.16667,0,0,4.16667,0,0)">
            <g transform="matrix(1,0,0,1,582.392,442.812)">
                <path d="M0,21.93L-45.052,10.705L-45.052,5.873L-26.517,5.322C-26.517,5.322 -23.306,5.047 -22.205,3.946C-21.104,2.845 -18.259,0 -18.259,0" style="fill:none;fill-rule:nonzero;stroke:rgb(50,183,125);stroke-width:1.91px;"/>
            </g>
        </g>
        <g transform="matrix(4.16667,0,0,4.16667,0,0)">
            <g transform="matrix(-1,0,0,1,1070.3,60.742)">
                <rect x="532.928" y="382.464" width="4.444" height="16.22" style="fill:none;stroke:rgb(50,183,125);stroke-width:1.91px;"/>
            </g>
        </g>
        <g transform="matrix(4.16667,0,0,4.16667,0,0)">
            <g transform="matrix(1,0,0,1,579.56,404.084)">
                <path d="M0,-2.203C0,-2.203 -1.06,-11.56 2.672,-17.371C5.395,-21.612 8.66,-24.42 13.475,-25.409C17.459,-26.228 23.282,-26.195 27.728,-22.29C32.873,-17.771 35.252,-14.399 39.167,-6.08C43.082,2.24 42.715,9.825 42.776,14.046C42.837,18.266 41.672,24.025 41.672,24.025" style="fill:none;fill-rule:nonzero;stroke:rgb(50,183,125);stroke-width:1.91px;"/>
            </g>
        </g>
        <g transform="matrix(4.16667,0,0,4.16667,0,0)">
            <g transform="matrix(1,0,0,1,616.586,383.389)">
                <path d="M0,40.736C0,40.736 1.652,35.17 -0.551,24.648C-2.753,14.127 -7.463,7.704 -9.481,5.563C-11.5,3.422 -13.744,0.251 -19.33,0.119C-24.346,0 -26.701,1.74 -28.842,4.125C-30.983,6.511 -31.564,9.05 -32.267,13.913" style="fill:none;fill-rule:nonzero;stroke:rgb(50,183,125);stroke-width:1.91px;"/>
            </g>
        </g>
        <g transform="matrix(4.16667,0,0,4.16667,0,0)">
            <g transform="matrix(0.0212995,-0.999773,-0.999773,-0.0212995,503.539,482.726)">
                <path d="M-5.629,5.75L5.874,5.75" style="fill:none;fill-rule:nonzero;stroke:rgb(50,183,125);stroke-width:3.33px;stroke-linejoin:miter;"/>
            </g>
        </g>
        <g transform="matrix(4.16667,0,0,4.16667,0,0)">
            <g transform="matrix(0.0212995,-0.999773,-0.999773,-0.0212995,513.694,497.407)">
                <path d="M-5.629,5.75L5.874,5.75" style="fill:none;fill-rule:nonzero;stroke:rgb(50,183,125);stroke-width:3.33px;stroke-linejoin:miter;"/>
            </g>
        </g>
        <g transform="matrix(4.16667,0,0,4.16667,0,0)">
            <g transform="matrix(0.0212995,-0.999773,-0.999773,-0.0212995,529.659,493.064)">
                <path d="M-5.629,5.75L5.874,5.75" style="fill:none;fill-rule:nonzero;stroke:rgb(50,183,125);stroke-width:3.33px;stroke-linejoin:miter;"/>
            </g>
        </g>
        <g transform="matrix(4.16667,0,0,4.16667,0,0)">
            <g transform="matrix(0.0212995,-0.999773,-0.999773,-0.0212995,522.441,521.325)">
                <path d="M-5.629,5.75L5.874,5.75" style="fill:none;fill-rule:nonzero;stroke:rgb(50,183,125);stroke-width:3.33px;stroke-linejoin:miter;"/>
            </g>
        </g>
        <g transform="matrix(4.16667,0,0,4.16667,0,0)">
            <g transform="matrix(1,0,0,1,514.309,454.877)">
                <path d="M0,24.301L0.245,7.173C0.245,7.173 0.245,0.689 5.322,0.261C8.371,0 12.744,0.198 12.744,0.198" style="fill:none;fill-rule:nonzero;stroke:rgb(50,183,125);stroke-width:3.33px;stroke-linejoin:miter;"/>
            </g>
        </g>
        <g transform="matrix(4.16667,0,0,4.16667,0,0)">
            <g transform="matrix(1,0,0,1,507.511,447.683)">
                <path d="M0,24.33L0.62,8.556C0.62,8.556 1.937,0.621 9.412,0.13C13.571,0.13 18.978,0 18.978,0" style="fill:none;fill-rule:nonzero;stroke:rgb(50,183,125);stroke-width:3.33px;stroke-linejoin:miter;"/>
            </g>
        </g>
    </g>
</svg>
