<?xml version="1.0" encoding="UTF-8" standalone="no"?>
<!DOCTYPE svg PUBLIC "-//W3C//DTD SVG 1.1//EN" "http://www.w3.org/Graphics/SVG/1.1/DTD/svg11.dtd">
<svg width="100%" height="100%" viewBox="0 0 471 471" version="1.1" xmlns="http://www.w3.org/2000/svg" xmlns:xlink="http://www.w3.org/1999/xlink" xml:space="preserve" xmlns:serif="http://www.serif.com/" style="fill-rule:evenodd;clip-rule:evenodd;stroke-linecap:round;stroke-miterlimit:10;">
    <g transform="matrix(1,0,0,1,-13906.7,-2407.18)">
        <g transform="matrix(4.16667,0,0,4.16667,11161.4,0)">
            <g transform="matrix(0,-1,-1,0,715.325,594.477)">
                <circle cx="-39.707" cy="0" r="39.707" style="fill:none;stroke:rgb(90,180,127);stroke-width:3.33px;"/>
            </g>
        </g>
        <g transform="matrix(4.16667,0,0,4.16667,11161.4,0)">
            <g transform="matrix(0,-1,-1,0,697.625,630.66)">
                <path d="M-4.477,-4.477C-6.949,-4.477 -8.954,-2.473 -8.954,0C-8.954,2.472 -6.949,4.477 -4.477,4.477C-2.005,4.477 0,2.472 0,0C0,-2.473 -2.005,-4.477 -4.477,-4.477" style="fill:rgb(50,183,125);fill-rule:nonzero;"/>
            </g>
        </g>
        <g transform="matrix(4.16667,0,0,4.16667,11161.4,0)">
            <g transform="matrix(0,-1,-1,0,715.467,630.66)">
                <path d="M-4.477,-4.477C-6.949,-4.477 -8.954,-2.473 -8.954,0C-8.954,2.472 -6.949,4.477 -4.477,4.477C-2.005,4.477 0,2.472 0,0C0,-2.473 -2.005,-4.477 -4.477,-4.477" style="fill:rgb(50,183,125);fill-rule:nonzero;"/>
            </g>
        </g>
        <g transform="matrix(4.16667,0,0,4.16667,11161.4,0)">
            <g transform="matrix(0,-1,-1,0,733.025,630.66)">
                <path d="M-4.477,-4.477C-6.949,-4.477 -8.954,-2.473 -8.954,0C-8.954,2.472 -6.949,4.477 -4.477,4.477C-2.005,4.477 0,2.472 0,0C0,-2.473 -2.005,-4.477 -4.477,-4.477" style="fill:rgb(50,183,125);fill-rule:nonzero;"/>
            </g>
        </g>
    </g>
</svg>
