<?xml version="1.0" encoding="utf-8"?>
<!-- Generator: Adobe Illustrator 26.2.1, SVG Export Plug-In . SVG Version: 6.00 Build 0)  -->
<svg version="1.1" id="Layer_1" xmlns="http://www.w3.org/2000/svg" xmlns:xlink="http://www.w3.org/1999/xlink" x="0px" y="0px"
	 viewBox="0 0 400 400" style="enable-background:new 0 0 400 400;" xml:space="preserve">
<style type="text/css">
	.st0{fill:#36B67D;}
</style>
<g>
	<path class="st0" d="M235.07,168.37c7.1-10.47,14.44-21.29,14.44-30.84c0-22.22-13.87-41.11-34.56-47.09
		c-4-2.67-5.98-6.84-7.57-10.2c-1.61-3.39-3.13-6.59-6.41-6.59c-3.85,0-5.51,3.46-7.27,7.12c-1.86,3.88-3.97,8.26-8.93,10.78
		c-18.96,7.07-31.2,25.1-31.2,45.98c0,11.46,8.15,23.32,15.34,33.78c4.58,6.67,8.92,12.98,10.44,18.14l0.18,23.06
		c0,0.05-0.01,0.09-0.01,0.14c0,0.06,0.01,0.11,0.02,0.16l0.07,8.83c-0.05,0.17-0.08,0.35-0.08,0.55c0,0.2,0.04,0.39,0.09,0.57
		l0,0.41l10,10.28h23.65l9.38-10.23v-9.79c0.1-0.24,0.16-0.5,0.16-0.78s-0.06-0.54-0.16-0.78v-9.81c0-0.01,0-0.03,0-0.04
		s0-0.03,0-0.04v-12C224.98,183.24,230.11,175.68,235.07,168.37z M183.59,220.19l-0.04-5.54h35.09v5.54H183.59z M202.96,139.12
		l37.49-22.85c2.49,4.85,4.12,10.23,4.75,15.93l-42.24,22.22V139.12z M198.96,154.22l-41.06-22.34c0.66-5.59,2.28-10.87,4.74-15.64
		l36.32,23.2V154.22z M218.64,191.84v8.19h-35.21l-0.06-8.19H218.64z M183.46,204.03h35.18v6.62h-35.12L183.46,204.03z
		 M231.76,166.12c-4.91,7.24-9.97,14.71-12.59,21.72h-16.21v-8.78l32.41-18.31C234.19,162.54,232.97,164.33,231.76,166.12z
		 M239.81,153.64l-36.84,20.82v-15.54l42.52-22.36c0.01,0.32,0.02,0.64,0.02,0.97C245.51,142.38,243.13,147.9,239.81,153.64z
		 M238.47,112.79l-35.5,21.64v-16.19l21.47-19.3C230.14,102.44,234.91,107.18,238.47,112.79z M213.03,93.97l0.25,0.16l0.29,0.08
		c2.49,0.7,4.88,1.62,7.14,2.71l-17.75,15.95V80.32c0.27,0.54,0.55,1.11,0.8,1.64C205.51,85.65,207.91,90.69,213.03,93.97z
		 M186.26,95.27l0.2-0.09c6.25-3.12,8.91-8.64,10.84-12.67c0.63-1.3,1.16-2.37,1.66-3.18v33.35L180.6,97.83
		C182.41,96.86,184.29,95.99,186.26,95.27z M176.97,100.04l22,17.78v16.87l-34.34-21.93C167.82,107.73,171.99,103.4,176.97,100.04z
		 M157.59,136.26l41.37,22.51v16.05l-35.1-18.64c-3.6-6.27-6.29-12.65-6.29-18.65C157.57,137.11,157.58,136.69,157.59,136.26z
		 M172.2,169.05c-1.37-1.99-2.77-4.03-4.14-6.11l30.9,16.41v8.49h-15.93C181.22,182.18,176.84,175.8,172.2,169.05z M211.5,229.46
		h-20.2l-5.12-5.27h30.15L211.5,229.46z"/>
	<path class="st0" d="M170.67,90.75c0.38,0.61,1.03,0.94,1.7,0.94c0.36,0,0.73-0.1,1.06-0.31c0.94-0.59,1.22-1.82,0.63-2.76
		l-7.82-12.46c-0.59-0.94-1.82-1.22-2.76-0.63c-0.94,0.59-1.22,1.82-0.63,2.76L170.67,90.75z"/>
	<path class="st0" d="M136.4,106.16l12.89,7.1c0.31,0.17,0.64,0.25,0.96,0.25c0.71,0,1.39-0.37,1.75-1.04
		c0.53-0.97,0.18-2.18-0.79-2.72l-12.89-7.1c-0.97-0.53-2.18-0.18-2.72,0.79C135.08,104.41,135.43,105.63,136.4,106.16z"/>
	<path class="st0" d="M144.56,141.3c0-1.1-0.9-2-2-2h-14.71c-1.1,0-2,0.9-2,2s0.9,2,2,2h14.71
		C143.67,143.3,144.56,142.4,144.56,141.3z"/>
	<path class="st0" d="M149.63,169.09l-12.89,7.1c-0.97,0.53-1.32,1.75-0.79,2.72c0.36,0.66,1.05,1.04,1.75,1.04
		c0.33,0,0.66-0.08,0.96-0.25l12.89-7.1c0.97-0.53,1.32-1.75,0.79-2.72C151.82,168.91,150.6,168.56,149.63,169.09z"/>
	<path class="st0" d="M227.32,87.3c0.33,0.21,0.7,0.31,1.06,0.31c0.67,0,1.32-0.33,1.7-0.94l7.82-12.46
		c0.59-0.94,0.3-2.17-0.63-2.76c-0.93-0.58-2.17-0.3-2.76,0.63l-7.82,12.46C226.1,85.48,226.38,86.71,227.32,87.3z"/>
	<path class="st0" d="M250.5,109.42c0.33,0,0.66-0.08,0.96-0.25l12.89-7.1c0.97-0.53,1.32-1.75,0.79-2.72
		c-0.53-0.97-1.75-1.32-2.72-0.79l-12.89,7.1c-0.97,0.53-1.32,1.75-0.79,2.72C249.11,109.05,249.79,109.42,250.5,109.42z"/>
	<path class="st0" d="M272.9,135.21h-14.71c-1.1,0-2,0.9-2,2s0.9,2,2,2h14.71c1.1,0,2-0.9,2-2S274,135.21,272.9,135.21z"/>
	<path class="st0" d="M264,172.11l-12.89-7.1c-0.97-0.53-2.18-0.18-2.72,0.79c-0.53,0.97-0.18,2.18,0.79,2.72l12.89,7.1
		c0.31,0.17,0.64,0.25,0.96,0.25c0.71,0,1.39-0.37,1.75-1.04C265.32,173.86,264.96,172.64,264,172.11z"/>
</g>
<g>
	<path class="st0" d="M159.4,259.91c-1.74-1.47-4.32-2.22-7.68-2.22c-3.37,0-5.94,0.75-7.66,2.22c-1.73,1.49-2.61,3.61-2.61,6.32
		v23.37c0,2.71,0.89,4.84,2.64,6.32c1.73,1.47,4.32,2.22,7.68,2.22c3.36,0,5.94-0.75,7.66-2.22c1.73-1.49,2.61-3.61,2.61-6.32
		v-23.37C162.04,263.52,161.15,261.4,159.4,259.91z M157.22,266.23v23.37c0,2.9-1.79,4.31-5.48,4.31s-5.48-1.41-5.48-4.31v-23.37
		c0-2.9,1.79-4.31,5.48-4.31S157.22,263.33,157.22,266.23z"/>
	<polygon class="st0" points="192.01,258.57 186.59,258.57 176.99,273.79 176.99,258.57 172.17,258.57 172.17,297.27 176.99,297.27 
		176.99,282.4 178.52,279.94 187.33,297.27 192.65,297.27 181.43,275.31 	"/>
	<path class="st0" d="M207.76,257.69c-3.2,0-5.63,0.75-7.23,2.23c-1.61,1.49-2.43,3.61-2.43,6.31v3.58h4.82V266
		c0-2.74,1.58-4.07,4.83-4.07c1.65,0,2.91,0.36,3.73,1.08c0.82,0.71,1.22,1.69,1.22,3v9.21h-6.41c-5.82,0-8.78,2.87-8.78,8.54v5.84
		c0,5.67,2.95,8.54,8.78,8.54c1.66,0,3.2-0.44,4.58-1.31c1.17-0.74,2.16-1.7,2.95-2.87l1.34,3.31h2.36v-31.03
		c0-2.7-0.84-4.83-2.49-6.32C213.41,258.44,210.96,257.69,207.76,257.69z M202.34,283.76c0-1.39,0.29-2.48,0.86-3.22
		c0.55-0.72,1.59-1.08,3.1-1.08h6.41v9.14c-0.08,1.14-0.78,2.32-2.1,3.51c-1.33,1.2-2.78,1.8-4.31,1.8c-1.51,0-2.55-0.36-3.1-1.08
		c-0.57-0.75-0.86-1.83-0.86-3.22V283.76z"/>
	<polygon class="st0" points="247.8,258.57 242.38,258.57 232.78,273.79 232.78,258.57 227.96,258.57 227.96,297.27 232.78,297.27 
		232.78,282.4 234.31,279.94 243.11,297.27 248.43,297.27 237.21,275.31 	"/>
	<rect x="254.48" y="258.57" class="st0" width="4.82" height="38.7"/>
</g>
<g>
	<path class="st0" d="M147.15,315.98l-3.04-2.93c-0.27-0.25-0.45-0.49-0.53-0.71c-0.08-0.23-0.12-0.54-0.12-0.94
		c0-0.4,0.13-0.71,0.4-0.94c0.27-0.23,0.67-0.34,1.2-0.34c0.53,0,0.93,0.11,1.2,0.34c0.27,0.23,0.4,0.54,0.4,0.95v1.51h1.19v-1.45
		c0-1.59-0.91-2.38-2.74-2.38c-0.95,0-1.66,0.21-2.13,0.62c-0.47,0.41-0.71,1-0.71,1.76c0,0.51,0.06,0.93,0.2,1.27
		c0.13,0.34,0.37,0.68,0.72,1.03l2.99,2.93c0.26,0.26,0.43,0.51,0.52,0.74c0.08,0.23,0.13,0.54,0.13,0.94c0,0.39-0.14,0.7-0.42,0.93
		c-0.28,0.23-0.7,0.34-1.26,0.34c-0.56,0-0.98-0.11-1.26-0.34c-0.28-0.23-0.42-0.54-0.42-0.95v-1.51h-1.19v1.44
		c0,1.59,0.96,2.38,2.87,2.38c1.92,0,2.87-0.79,2.87-2.38c0-0.51-0.06-0.93-0.19-1.27C147.71,316.7,147.48,316.35,147.15,315.98z"/>
	<path class="st0" d="M158.55,309.11c-0.88,0-1.6,0.41-2.14,1.24c-0.32-0.83-1.05-1.24-2.19-1.24c-0.45,0-0.87,0.12-1.26,0.37
		s-0.7,0.57-0.94,0.98l-0.42-1.09h-0.51v11.05h1.19v-8.64c0-0.36,0.2-0.73,0.6-1.1c0.4-0.37,0.84-0.55,1.32-0.55
		c0.82,0,1.22,0.45,1.22,1.36v8.93h1.19v-8.59c0-0.36,0.2-0.74,0.6-1.12c0.4-0.39,0.84-0.58,1.32-0.58c0.82,0,1.22,0.45,1.22,1.36
		v8.93h1.19v-8.93C160.94,309.91,160.14,309.11,158.55,309.11z"/>
	<path class="st0" d="M166.71,309.11c-0.91,0-1.58,0.21-2.03,0.62c-0.45,0.41-0.67,1-0.67,1.76v0.94h1.19v-1
		c0-0.86,0.5-1.29,1.51-1.29c0.51,0,0.9,0.11,1.16,0.34c0.26,0.23,0.39,0.54,0.39,0.95v2.79h-1.97c-1.63,0-2.45,0.79-2.45,2.38v1.7
		c0,1.59,0.82,2.38,2.45,2.38c0.47,0,0.89-0.12,1.28-0.36c0.39-0.24,0.7-0.57,0.94-0.98l0.44,1.09h0.51v-8.93
		c0-0.76-0.23-1.35-0.69-1.76C168.3,309.32,167.61,309.11,166.71,309.11z M168.26,318.01c-0.02,0.36-0.24,0.73-0.65,1.1
		c-0.41,0.37-0.85,0.55-1.33,0.55s-0.8-0.12-0.99-0.36c-0.18-0.24-0.27-0.57-0.27-1v-1.7c0-0.43,0.09-0.77,0.27-1
		c0.18-0.24,0.51-0.36,0.99-0.36h1.97V318.01z"/>
	<path class="st0" d="M175.42,309.11c-0.79,0-1.37,0.5-1.73,1.51l-0.49-1.26h-0.51v11.05h1.19v-7.77c0-0.82,0.16-1.44,0.47-1.87
		c0.31-0.43,0.65-0.65,1.03-0.65c0.62,0,0.94,0.37,0.94,1.12v1.17h1.14v-1.1C177.44,309.85,176.76,309.11,175.42,309.11z"/>
	<path class="st0" d="M182.29,318.54c0,0.33-0.08,0.6-0.24,0.81c-0.16,0.21-0.39,0.31-0.69,0.31s-0.53-0.11-0.7-0.32
		c-0.16-0.22-0.25-0.48-0.25-0.8v-8.15h2.55v-1.02h-3.74v9.1c0,0.71,0.2,1.26,0.59,1.64c0.39,0.38,0.91,0.57,1.56,0.57
		c0.65,0,1.16-0.19,1.54-0.57c0.38-0.38,0.57-0.93,0.57-1.64v-1.96h-1.19V318.54z"/>
	<path class="st0" d="M192.3,309.11c-0.93,0-1.63,0.21-2.09,0.62c-0.47,0.41-0.7,1-0.7,1.76v6.8c0,0.76,0.24,1.35,0.71,1.76
		c0.48,0.41,1.18,0.62,2.11,0.62c0.93,0,1.63-0.21,2.09-0.62c0.46-0.41,0.7-1,0.7-1.76v-3.49h-3.09v1.02h1.9v2.47
		c0,0.91-0.54,1.36-1.62,1.36s-1.62-0.45-1.62-1.36v-6.8c0-0.91,0.54-1.36,1.62-1.36s1.62,0.45,1.62,1.36v0.94h1.19v-0.94
		c0-0.76-0.24-1.35-0.71-1.76C193.93,309.32,193.23,309.11,192.3,309.11z"/>
	<path class="st0" d="M200.81,309.11c-0.91,0-1.58,0.21-2.03,0.62c-0.45,0.41-0.67,1-0.67,1.76v0.94h1.19v-1
		c0-0.86,0.5-1.29,1.51-1.29c0.51,0,0.9,0.11,1.16,0.34c0.26,0.23,0.39,0.54,0.39,0.95v2.79h-1.97c-1.63,0-2.45,0.79-2.45,2.38v1.7
		c0,1.59,0.82,2.38,2.45,2.38c0.47,0,0.89-0.12,1.28-0.36c0.39-0.24,0.7-0.57,0.94-0.98l0.44,1.09h0.51v-8.93
		c0-0.76-0.23-1.35-0.69-1.76C202.4,309.32,201.71,309.11,200.81,309.11z M202.35,318.01c-0.02,0.36-0.24,0.73-0.65,1.1
		c-0.41,0.37-0.85,0.55-1.33,0.55s-0.8-0.12-0.99-0.36c-0.18-0.24-0.27-0.57-0.27-1v-1.7c0-0.43,0.09-0.77,0.27-1
		c0.18-0.24,0.51-0.36,0.99-0.36h1.97V318.01z"/>
	<path class="st0" d="M209.51,309.11c-0.79,0-1.37,0.5-1.73,1.51l-0.49-1.26h-0.51v11.05h1.19v-7.77c0-0.82,0.16-1.44,0.47-1.87
		c0.31-0.43,0.65-0.65,1.03-0.65c0.62,0,0.94,0.37,0.94,1.12v1.17h1.14v-1.1C211.54,309.85,210.86,309.11,209.51,309.11z"/>
	<path class="st0" d="M216.32,309.37h-2.74v11.05h2.74c0.9,0,1.57-0.21,2.02-0.62c0.45-0.41,0.68-1,0.68-1.76v-6.29
		c0-0.75-0.23-1.33-0.69-1.75C217.87,309.58,217.2,309.37,216.32,309.37z M217.83,318.04c0,0.91-0.5,1.36-1.51,1.36h-1.55v-9.01
		h1.55c0.49,0,0.86,0.12,1.12,0.36c0.26,0.24,0.39,0.57,0.39,1V318.04z"/>
	<path class="st0" d="M224.7,309.11c-0.93,0-1.63,0.21-2.09,0.62c-0.47,0.41-0.7,1-0.7,1.76v6.8c0,0.76,0.24,1.35,0.71,1.76
		c0.48,0.41,1.18,0.62,2.11,0.62c0.93,0,1.63-0.21,2.09-0.62c0.46-0.41,0.7-1,0.7-1.76v-0.94h-1.19v0.94c0,0.91-0.54,1.36-1.62,1.36
		s-1.62-0.45-1.62-1.36v-3.06h4.42v-3.74c0-0.76-0.24-1.35-0.71-1.76C226.33,309.32,225.63,309.11,224.7,309.11z M226.33,314.22
		h-3.23v-2.72c0-0.91,0.54-1.36,1.62-1.36s1.62,0.45,1.62,1.36V314.22z"/>
	<path class="st0" d="M233.87,309.11c-0.96,0-1.72,0.45-2.26,1.36l-0.42-1.11h-0.51v11.05h1.19v-8.59c0-0.36,0.21-0.74,0.63-1.12
		c0.42-0.39,0.88-0.58,1.38-0.58c0.5,0,0.84,0.12,1.03,0.36c0.19,0.24,0.28,0.57,0.28,1v8.93h1.19v-8.93
		C236.37,309.91,235.53,309.11,233.87,309.11z"/>
	<rect x="239.6" y="309.37" class="st0" width="1.19" height="11.05"/>
	<path class="st0" d="M247.39,309.11c-0.96,0-1.72,0.45-2.26,1.36l-0.42-1.11h-0.51v11.05h1.19v-8.59c0-0.36,0.21-0.74,0.63-1.12
		c0.42-0.39,0.88-0.58,1.38-0.58s0.84,0.12,1.03,0.36c0.19,0.24,0.28,0.57,0.28,1v8.93h1.19v-8.93
		C249.89,309.91,249.05,309.11,247.39,309.11z"/>
	<path class="st0" d="M258.47,312.43v-0.94c0-0.76-0.24-1.35-0.71-1.76c-0.48-0.41-1.18-0.62-2.11-0.62c-0.93,0-1.63,0.21-2.09,0.62
		c-0.47,0.41-0.7,1-0.7,1.76v6.8c0,0.76,0.24,1.35,0.71,1.76c0.48,0.41,1.18,0.62,2.11,0.62c0.93,0,1.63-0.21,2.09-0.62
		c0.46-0.41,0.7-1,0.7-1.76v-3.49h-3.09v1.02h1.9v2.47c0,0.91-0.54,1.36-1.62,1.36s-1.62-0.45-1.62-1.36v-6.8
		c0-0.91,0.54-1.36,1.62-1.36s1.62,0.45,1.62,1.36v0.94H258.47z"/>
</g>
</svg>
