<svg enable-background="new 0 0 400 400" viewBox="0 0 400 400" xmlns="http://www.w3.org/2000/svg">
	<g fill="#36b67d">
		<path
			d="m235.07 168.37c7.1-10.47 14.44-21.29 14.44-30.84 0-22.22-13.87-41.11-34.56-47.09-4-2.67-5.98-6.84-7.57-10.2-1.61-3.39-3.13-6.59-6.41-6.59-3.85 0-5.51 3.46-7.27 7.12-1.86 3.88-3.97 8.26-8.93 10.78-18.96 7.07-31.2 25.1-31.2 45.98 0 11.46 8.15 23.32 15.34 33.78 4.58 6.67 8.92 12.98 10.44 18.14l.18 23.06c0 .05-.01.09-.01.14 0 .06.01.11.02.16l.07 8.83c-.05.17-.08.35-.08.55s.04.39.09.57v.41l10 10.28h23.65l9.38-10.23v-9.79c.1-.24.16-.5.16-.78s-.06-.54-.16-.78v-9.81c0-.01 0-.03 0-.04s0-.03 0-.04v-12c2.33-6.74 7.46-14.3 12.42-21.61zm-51.48 51.82-.04-5.54h35.09v5.54zm19.37-81.07 37.49-22.85c2.49 4.85 4.12 10.23 4.75 15.93l-42.24 22.22zm-4 15.1-41.06-22.34c.66-5.59 2.28-10.87 4.74-15.64l36.32 23.2zm19.68 37.62v8.19h-35.21l-.06-8.19zm-35.18 12.19h35.18v6.62h-35.12zm48.3-37.91c-4.91 7.24-9.97 14.71-12.59 21.72h-16.21v-8.78l32.41-18.31c-1.18 1.79-2.4 3.58-3.61 5.37zm8.05-12.48-36.84 20.82v-15.54l42.52-22.36c.01.32.02.64.02.97 0 4.85-2.38 10.37-5.7 16.11zm-1.34-40.85-35.5 21.64v-16.19l21.47-19.3c5.7 3.5 10.47 8.24 14.03 13.85zm-25.44-18.82.25.16.29.08c2.49.7 4.88 1.62 7.14 2.71l-17.75 15.95v-32.55c.27.54.55 1.11.8 1.64 1.75 3.69 4.15 8.73 9.27 12.01zm-26.77 1.3.2-.09c6.25-3.12 8.91-8.64 10.84-12.67.63-1.3 1.16-2.37 1.66-3.18v33.35l-18.36-14.85c1.81-.97 3.69-1.84 5.66-2.56zm-9.29 4.77 22 17.78v16.87l-34.34-21.93c3.19-5.03 7.36-9.36 12.34-12.72zm-19.38 36.22 41.37 22.51v16.05l-35.1-18.64c-3.6-6.27-6.29-12.65-6.29-18.65 0-.42.01-.84.02-1.27zm14.61 32.79c-1.37-1.99-2.77-4.03-4.14-6.11l30.9 16.41v8.49h-15.93c-1.81-5.66-6.19-12.04-10.83-18.79zm39.3 60.41h-20.2l-5.12-5.27h30.15z" />
		<path
			d="m170.67 90.75c.38.61 1.03.94 1.7.94.36 0 .73-.1 1.06-.31.94-.59 1.22-1.82.63-2.76l-7.82-12.46c-.59-.94-1.82-1.22-2.76-.63s-1.22 1.82-.63 2.76z" />
		<path
			d="m136.4 106.16 12.89 7.1c.31.17.64.25.96.25.71 0 1.39-.37 1.75-1.04.53-.97.18-2.18-.79-2.72l-12.89-7.1c-.97-.53-2.18-.18-2.72.79-.52.97-.17 2.19.8 2.72z" />
		<path
			d="m144.56 141.3c0-1.1-.9-2-2-2h-14.71c-1.1 0-2 .9-2 2s.9 2 2 2h14.71c1.11 0 2-.9 2-2z" />
		<path
			d="m149.63 169.09-12.89 7.1c-.97.53-1.32 1.75-.79 2.72.36.66 1.05 1.04 1.75 1.04.33 0 .66-.08.96-.25l12.89-7.1c.97-.53 1.32-1.75.79-2.72-.52-.97-1.74-1.32-2.71-.79z" />
		<path
			d="m227.32 87.3c.33.21.7.31 1.06.31.67 0 1.32-.33 1.7-.94l7.82-12.46c.59-.94.3-2.17-.63-2.76-.93-.58-2.17-.3-2.76.63l-7.82 12.46c-.59.94-.31 2.17.63 2.76z" />
		<path
			d="m250.5 109.42c.33 0 .66-.08.96-.25l12.89-7.1c.97-.53 1.32-1.75.79-2.72s-1.75-1.32-2.72-.79l-12.89 7.1c-.97.53-1.32 1.75-.79 2.72.37.67 1.05 1.04 1.76 1.04z" />
		<path d="m272.9 135.21h-14.71c-1.1 0-2 .9-2 2s.9 2 2 2h14.71c1.1 0 2-.9 2-2s-.9-2-2-2z" />
		<path
			d="m264 172.11-12.89-7.1c-.97-.53-2.18-.18-2.72.79-.53.97-.18 2.18.79 2.72l12.89 7.1c.31.17.64.25.96.25.71 0 1.39-.37 1.75-1.04.54-.97.18-2.19-.78-2.72z" />
		<path
			d="m159.4 259.91c-1.74-1.47-4.32-2.22-7.68-2.22-3.37 0-5.94.75-7.66 2.22-1.73 1.49-2.61 3.61-2.61 6.32v23.37c0 2.71.89 4.84 2.64 6.32 1.73 1.47 4.32 2.22 7.68 2.22s5.94-.75 7.66-2.22c1.73-1.49 2.61-3.61 2.61-6.32v-23.37c0-2.71-.89-4.83-2.64-6.32zm-2.18 6.32v23.37c0 2.9-1.79 4.31-5.48 4.31s-5.48-1.41-5.48-4.31v-23.37c0-2.9 1.79-4.31 5.48-4.31s5.48 1.41 5.48 4.31z" />
		<path
			d="m192.01 258.57h-5.42l-9.6 15.22v-15.22h-4.82v38.7h4.82v-14.87l1.53-2.46 8.81 17.33h5.32l-11.22-21.96z" />
		<path
			d="m207.76 257.69c-3.2 0-5.63.75-7.23 2.23-1.61 1.49-2.43 3.61-2.43 6.31v3.58h4.82v-3.81c0-2.74 1.58-4.07 4.83-4.07 1.65 0 2.91.36 3.73 1.08.82.71 1.22 1.69 1.22 3v9.21h-6.41c-5.82 0-8.78 2.87-8.78 8.54v5.84c0 5.67 2.95 8.54 8.78 8.54 1.66 0 3.2-.44 4.58-1.31 1.17-.74 2.16-1.7 2.95-2.87l1.34 3.31h2.36v-31.03c0-2.7-.84-4.83-2.49-6.32-1.62-1.48-4.07-2.23-7.27-2.23zm-5.42 26.07c0-1.39.29-2.48.86-3.22.55-.72 1.59-1.08 3.1-1.08h6.41v9.14c-.08 1.14-.78 2.32-2.1 3.51-1.33 1.2-2.78 1.8-4.31 1.8-1.51 0-2.55-.36-3.1-1.08-.57-.75-.86-1.83-.86-3.22z" />
		<path
			d="m247.8 258.57h-5.42l-9.6 15.22v-15.22h-4.82v38.7h4.82v-14.87l1.53-2.46 8.8 17.33h5.32l-11.22-21.96z" />
		<path d="m254.48 258.57h4.82v38.7h-4.82z" />
		<path
			d="m147.15 315.98-3.04-2.93c-.27-.25-.45-.49-.53-.71-.08-.23-.12-.54-.12-.94s.13-.71.4-.94.67-.34 1.2-.34.93.11 1.2.34.4.54.4.95v1.51h1.19v-1.45c0-1.59-.91-2.38-2.74-2.38-.95 0-1.66.21-2.13.62s-.71 1-.71 1.76c0 .51.06.93.2 1.27.13.34.37.68.72 1.03l2.99 2.93c.26.26.43.51.52.74.08.23.13.54.13.94 0 .39-.14.7-.42.93s-.7.34-1.26.34-.98-.11-1.26-.34-.42-.54-.42-.95v-1.51h-1.19v1.44c0 1.59.96 2.38 2.87 2.38 1.92 0 2.87-.79 2.87-2.38 0-.51-.06-.93-.19-1.27-.12-.32-.35-.67-.68-1.04z" />
		<path
			d="m158.55 309.11c-.88 0-1.6.41-2.14 1.24-.32-.83-1.05-1.24-2.19-1.24-.45 0-.87.12-1.26.37s-.7.57-.94.98l-.42-1.09h-.51v11.05h1.19v-8.64c0-.36.2-.73.6-1.1s.84-.55 1.32-.55c.82 0 1.22.45 1.22 1.36v8.93h1.19v-8.59c0-.36.2-.74.6-1.12.4-.39.84-.58 1.32-.58.82 0 1.22.45 1.22 1.36v8.93h1.19v-8.93c0-1.58-.8-2.38-2.39-2.38z" />
		<path
			d="m166.71 309.11c-.91 0-1.58.21-2.03.62s-.67 1-.67 1.76v.94h1.19v-1c0-.86.5-1.29 1.51-1.29.51 0 .9.11 1.16.34s.39.54.39.95v2.79h-1.97c-1.63 0-2.45.79-2.45 2.38v1.7c0 1.59.82 2.38 2.45 2.38.47 0 .89-.12 1.28-.36s.7-.57.94-.98l.44 1.09h.51v-8.93c0-.76-.23-1.35-.69-1.76-.47-.42-1.16-.63-2.06-.63zm1.55 8.9c-.02.36-.24.73-.65 1.1s-.85.55-1.33.55-.8-.12-.99-.36c-.18-.24-.27-.57-.27-1v-1.7c0-.43.09-.77.27-1 .18-.24.51-.36.99-.36h1.97v2.77z" />
		<path
			d="m175.42 309.11c-.79 0-1.37.5-1.73 1.51l-.49-1.26h-.51v11.05h1.19v-7.77c0-.82.16-1.44.47-1.87s.65-.65 1.03-.65c.62 0 .94.37.94 1.12v1.17h1.14v-1.1c-.02-1.46-.7-2.2-2.04-2.2z" />
		<path
			d="m182.29 318.54c0 .33-.08.6-.24.81s-.39.31-.69.31-.53-.11-.7-.32c-.16-.22-.25-.48-.25-.8v-8.15h2.55v-1.02h-3.74v9.1c0 .71.2 1.26.59 1.64s.91.57 1.56.57 1.16-.19 1.54-.57.57-.93.57-1.64v-1.96h-1.19z" />
		<path
			d="m192.3 309.11c-.93 0-1.63.21-2.09.62-.47.41-.7 1-.7 1.76v6.8c0 .76.24 1.35.71 1.76.48.41 1.18.62 2.11.62s1.63-.21 2.09-.62.7-1 .7-1.76v-3.49h-3.09v1.02h1.9v2.47c0 .91-.54 1.36-1.62 1.36s-1.62-.45-1.62-1.36v-6.8c0-.91.54-1.36 1.62-1.36s1.62.45 1.62 1.36v.94h1.19v-.94c0-.76-.24-1.35-.71-1.76-.48-.41-1.18-.62-2.11-.62z" />
		<path
			d="m200.81 309.11c-.91 0-1.58.21-2.03.62s-.67 1-.67 1.76v.94h1.19v-1c0-.86.5-1.29 1.51-1.29.51 0 .9.11 1.16.34s.39.54.39.95v2.79h-1.97c-1.63 0-2.45.79-2.45 2.38v1.7c0 1.59.82 2.38 2.45 2.38.47 0 .89-.12 1.28-.36s.7-.57.94-.98l.44 1.09h.51v-8.93c0-.76-.23-1.35-.69-1.76-.47-.42-1.16-.63-2.06-.63zm1.54 8.9c-.02.36-.24.73-.65 1.1s-.85.55-1.33.55-.8-.12-.99-.36c-.18-.24-.27-.57-.27-1v-1.7c0-.43.09-.77.27-1 .18-.24.51-.36.99-.36h1.97v2.77z" />
		<path
			d="m209.51 309.11c-.79 0-1.37.5-1.73 1.51l-.49-1.26h-.51v11.05h1.19v-7.77c0-.82.16-1.44.47-1.87s.65-.65 1.03-.65c.62 0 .94.37.94 1.12v1.17h1.14v-1.1c-.01-1.46-.69-2.2-2.04-2.2z" />
		<path
			d="m216.32 309.37h-2.74v11.05h2.74c.9 0 1.57-.21 2.02-.62s.68-1 .68-1.76v-6.29c0-.75-.23-1.33-.69-1.75s-1.13-.63-2.01-.63zm1.51 8.67c0 .91-.5 1.36-1.51 1.36h-1.55v-9.01h1.55c.49 0 .86.12 1.12.36s.39.57.39 1z" />
		<path
			d="m224.7 309.11c-.93 0-1.63.21-2.09.62-.47.41-.7 1-.7 1.76v6.8c0 .76.24 1.35.71 1.76.48.41 1.18.62 2.11.62s1.63-.21 2.09-.62.7-1 .7-1.76v-.94h-1.19v.94c0 .91-.54 1.36-1.62 1.36s-1.62-.45-1.62-1.36v-3.06h4.42v-3.74c0-.76-.24-1.35-.71-1.76s-1.17-.62-2.1-.62zm1.63 5.11h-3.23v-2.72c0-.91.54-1.36 1.62-1.36s1.62.45 1.62 1.36v2.72z" />
		<path
			d="m233.87 309.11c-.96 0-1.72.45-2.26 1.36l-.42-1.11h-.51v11.05h1.19v-8.59c0-.36.21-.74.63-1.12.42-.39.88-.58 1.38-.58s.84.12 1.03.36.28.57.28 1v8.93h1.19v-8.93c-.01-1.57-.85-2.37-2.51-2.37z" />
		<path d="m239.6 309.37h1.19v11.05h-1.19z" />
		<path
			d="m247.39 309.11c-.96 0-1.72.45-2.26 1.36l-.42-1.11h-.51v11.05h1.19v-8.59c0-.36.21-.74.63-1.12.42-.39.88-.58 1.38-.58s.84.12 1.03.36.28.57.28 1v8.93h1.19v-8.93c-.01-1.57-.85-2.37-2.51-2.37z" />
		<path
			d="m258.47 312.43v-.94c0-.76-.24-1.35-.71-1.76-.48-.41-1.18-.62-2.11-.62s-1.63.21-2.09.62c-.47.41-.7 1-.7 1.76v6.8c0 .76.24 1.35.71 1.76.48.41 1.18.62 2.11.62s1.63-.21 2.09-.62.7-1 .7-1.76v-3.49h-3.09v1.02h1.9v2.47c0 .91-.54 1.36-1.62 1.36s-1.62-.45-1.62-1.36v-6.8c0-.91.54-1.36 1.62-1.36s1.62.45 1.62 1.36v.94z" />
	</g>
</svg>