<?xml version="1.0" encoding="UTF-8" standalone="no"?>
<!DOCTYPE svg PUBLIC "-//W3C//DTD SVG 1.1//EN" "http://www.w3.org/Graphics/SVG/1.1/DTD/svg11.dtd">
<svg width="100%" height="100%" viewBox="0 0 742 570" version="1.1" xmlns="http://www.w3.org/2000/svg" xmlns:xlink="http://www.w3.org/1999/xlink" xml:space="preserve" xmlns:serif="http://www.serif.com/" style="fill-rule:evenodd;clip-rule:evenodd;stroke-miterlimit:10;">
    <g transform="matrix(1,0,0,1,-15019.6,-952.422)">
        <g transform="matrix(4.16667,0,0,4.16667,11161.4,0)">
            <g transform="matrix(1,0,0,1,995.25,289.32)">
                <path d="M0,12.891C0,12.891 6.445,12.683 6.903,6.446C7.128,3.374 5.395,0.301 1.788,0" style="fill:none;fill-rule:nonzero;stroke:rgb(90,180,127);stroke-width:3.3px;"/>
            </g>
        </g>
        <g transform="matrix(4.16667,0,0,4.16667,11161.4,0)">
            <g transform="matrix(1,0,0,1,971.171,315.834)">
                <path d="M0,-39.931C12.158,-42.548 11.632,-52.26 11.632,-52.26L-17.524,-52.26C-37.062,-52.26 -43.024,-36.852 -43.073,-31.319L-43.564,-10.635C-43.564,-10.635 -43.656,11.21 -23.067,12.329L16.219,12.076C16.219,12.076 22.332,11.784 22.54,6.545C22.703,2.429 20.669,0.058 18.34,-0.524" style="fill:none;fill-rule:nonzero;stroke:rgb(90,180,127);stroke-width:3.3px;stroke-linecap:round;stroke-linejoin:round;"/>
            </g>
        </g>
        <g transform="matrix(4.16667,0,0,4.16667,11161.4,0)">
            <g transform="matrix(1,0,0,1,957.755,290.325)">
                <path d="M0,-14.428L62.32,-14.428C62.32,-14.428 68.732,-13.827 68.632,-6.914C68.532,0 60.717,-1.002 60.717,-1.002L20.439,-1.002" style="fill:none;fill-rule:nonzero;stroke:rgb(90,180,127);stroke-width:3.3px;stroke-linecap:round;stroke-linejoin:round;"/>
            </g>
        </g>
        <g transform="matrix(4.16667,0,0,4.16667,11161.4,0)">
            <g transform="matrix(1,0,0,1,978.242,315.48)">
                <path d="M0,-13.332L16.966,-13.332C16.966,-13.332 20.625,-11.606 20.5,-6.533C20.374,-1.42 16.55,-0.711 14.38,-0.407C11.475,0 -0.083,-0.407 -0.083,-0.407" style="fill:none;fill-rule:nonzero;stroke:rgb(90,180,127);stroke-width:3.3px;stroke-linecap:round;stroke-linejoin:round;"/>
            </g>
        </g>
        <g transform="matrix(4.16667,0,0,4.16667,11161.4,0)">
            <g transform="matrix(1,0,0,1,1001.98,317.928)">
                <path d="M0,-42.001L0,-72.764L85.394,-72.764L85.394,29.808L24.347,30.763C10.901,30.763 0,19.862 0,6.416L0,-28.201" style="fill:none;fill-rule:nonzero;stroke:rgb(90,180,127);stroke-width:3.3px;"/>
            </g>
        </g>
    </g>
</svg>
