<?xml version="1.0" encoding="UTF-8" standalone="no"?>
<!DOCTYPE svg PUBLIC "-//W3C//DTD SVG 1.1//EN" "http://www.w3.org/Graphics/SVG/1.1/DTD/svg11.dtd">
<svg width="100%" height="100%" viewBox="0 0 742 621" version="1.1" xmlns="http://www.w3.org/2000/svg" xmlns:xlink="http://www.w3.org/1999/xlink" xml:space="preserve" xmlns:serif="http://www.serif.com/" style="fill-rule:evenodd;clip-rule:evenodd;stroke-linecap:round;stroke-miterlimit:10;">
    <g transform="matrix(1,0,0,1,-11688.3,-2318.23)">
        <g transform="matrix(4.16667,0,0,4.16667,11161.4,0)">
            <g transform="matrix(0,1,1,0,195.364,653.092)">
                <path d="M-28.255,-28.255L28.255,-28.255" style="fill:none;fill-rule:nonzero;stroke:rgb(90,180,127);stroke-width:4.76px;"/>
            </g>
        </g>
        <g transform="matrix(4.16667,0,0,4.16667,11161.4,0)">
            <g transform="matrix(0,1,1,0,172.159,585.451)">
                <path d="M-5.05,-5.05L5.05,-5.05" style="fill:none;fill-rule:nonzero;stroke:rgb(90,180,127);stroke-width:4.76px;"/>
            </g>
        </g>
        <g transform="matrix(4.16667,0,0,4.16667,11161.4,0)">
            <g transform="matrix(0,1,1,0,219.649,677.238)">
                <path d="M-4.11,-4.11L4.11,-4.11" style="fill:none;fill-rule:nonzero;stroke:rgb(90,180,127);stroke-width:4.76px;"/>
            </g>
        </g>
        <g transform="matrix(4.16667,0,0,4.16667,11161.4,0)">
            <g transform="matrix(0,1,1,0,243.831,608.693)">
                <path d="M-28.292,-28.292L28.292,-28.292" style="fill:none;fill-rule:nonzero;stroke:rgb(90,180,127);stroke-width:4.76px;"/>
            </g>
        </g>
        <g transform="matrix(4.16667,0,0,4.16667,11161.4,0)">
            <g transform="matrix(0,1,1,0,281.854,663.091)">
                <path d="M-18.165,-18.165L18.165,-18.165" style="fill:none;fill-rule:nonzero;stroke:rgb(90,180,127);stroke-width:4.76px;"/>
            </g>
        </g>
        <g transform="matrix(4.16667,0,0,4.16667,11161.4,0)">
            <g transform="matrix(0,1,1,0,278.148,594.769)">
                <path d="M-14.459,-14.459L14.459,-14.459" style="fill:none;fill-rule:nonzero;stroke:rgb(90,180,127);stroke-width:4.76px;"/>
            </g>
        </g>
        <g transform="matrix(4.16667,0,0,4.16667,11161.4,0)">
            <g transform="matrix(0,-1,-1,0,215.539,637.896)">
                <circle cx="-16.709" cy="0" r="16.709" style="fill:none;stroke:rgb(90,180,127);stroke-width:4.76px;"/>
            </g>
        </g>
        <g transform="matrix(4.16667,0,0,4.16667,11161.4,0)">
            <g transform="matrix(0,-1,-1,0,263.689,610.392)">
                <circle cx="-16.709" cy="0" r="16.709" style="fill:none;stroke:rgb(90,180,127);stroke-width:4.76px;"/>
            </g>
        </g>
        <g transform="matrix(4.16667,0,0,4.16667,11161.4,0)">
            <g transform="matrix(0,-1,-1,0,167.109,591.046)">
                <circle cx="-16.709" cy="0" r="16.709" style="fill:none;stroke:rgb(90,180,127);stroke-width:4.76px;"/>
            </g>
        </g>
    </g>
</svg>
