<?xml version="1.0" encoding="UTF-8" standalone="no"?>
<!DOCTYPE svg PUBLIC "-//W3C//DTD SVG 1.1//EN" "http://www.w3.org/Graphics/SVG/1.1/DTD/svg11.dtd">
<svg width="100%" height="100%" viewBox="0 0 829 939" version="1.1" xmlns="http://www.w3.org/2000/svg" xmlns:xlink="http://www.w3.org/1999/xlink" xml:space="preserve" xmlns:serif="http://www.serif.com/" style="fill-rule:evenodd;clip-rule:evenodd;stroke-miterlimit:10;">
    <g transform="matrix(1,0,0,1,-6213.7,-357.39)">
        <g transform="matrix(4.16667,0,0,4.16667,5580.7,0)">
            <g transform="matrix(1,0,0,1,171.861,146.688)">
                <path d="M0,72.113C0,72.113 -1.336,52.891 15.191,33.255C25.954,20.467 38.816,18.655 50.495,17.328C62.175,16.001 62.616,3.981 62.881,0" style="fill:none;fill-rule:nonzero;stroke:rgb(90,180,127);stroke-width:2.38px;"/>
            </g>
        </g>
        <g transform="matrix(4.16667,0,0,4.16667,5580.7,0)">
            <g transform="matrix(1,0,0,1,275.976,166.136)">
                <path d="M0,-19.639C0,-19.639 -0.392,-9.404 5.387,-4.301C10.257,0 17.948,-0.527 17.948,-0.527L46.984,-0.792" style="fill:none;fill-rule:nonzero;stroke:rgb(90,180,127);stroke-width:2.38px;"/>
            </g>
        </g>
        <g transform="matrix(4.16667,0,0,4.16667,5580.7,0)">
            <g transform="matrix(0.236785,0.971562,0.971562,-0.236785,233.142,148.393)">
                <path d="M60.566,-49.047C60.566,-49.047 46.5,-43.303 44.214,-29.452C41.088,-10.498 55.142,-10.002 60.566,11.632C64.781,28.446 57.601,33.601 60.43,45.206C63.258,56.812 67.927,75.761 67.927,75.761" style="fill:none;fill-rule:nonzero;stroke:rgb(90,180,127);stroke-width:2.38px;"/>
            </g>
        </g>
        <g transform="matrix(4.16667,0,0,4.16667,5580.7,0)">
            <g transform="matrix(1,0,0,1,201.276,218.954)">
                <path d="M0,13.066C3.608,13.066 6.533,10.141 6.533,6.533C6.533,2.925 3.608,0 0,0L-10.514,0.009L-30.855,0C-34.464,0 -37.388,2.925 -37.388,6.533C-37.388,10.141 -34.464,13.066 -30.855,13.066L-10.514,13.016L0,13.066Z" style="fill:none;fill-rule:nonzero;stroke:rgb(90,180,127);stroke-width:2.38px;"/>
            </g>
        </g>
        <g transform="matrix(4.16667,0,0,4.16667,5580.7,0)">
            <g transform="matrix(1,0,0,1,322.956,154.02)">
                <path d="M0,55.896C0,60.284 3.557,63.841 7.945,63.841C12.333,63.841 15.89,60.284 15.89,55.896L15.88,24.739L15.89,0C15.89,-4.388 12.333,-7.945 7.945,-7.945C3.557,-7.945 0,-4.388 0,0L0.061,24.739L0,55.896Z" style="fill:none;fill-rule:nonzero;stroke:rgb(90,180,127);stroke-width:2.38px;"/>
            </g>
        </g>
        <g transform="matrix(4.16667,0,0,4.16667,5580.7,0)">
            <g transform="matrix(1,0,0,1,274.198,130.686)">
                <path d="M0,16.055C4.433,16.055 8.027,12.461 8.027,8.028C8.027,3.594 4.433,0 0,0L-12.919,0.011L-37.914,0C-42.347,0 -45.941,3.594 -45.941,8.028C-45.941,12.461 -42.347,16.055 -37.914,16.055L-12.919,15.993L0,16.055Z" style="fill:none;fill-rule:nonzero;stroke:rgb(90,180,127);stroke-width:2.38px;"/>
            </g>
        </g>
        <g transform="matrix(4.16667,0,0,4.16667,5580.7,0)">
            <g transform="matrix(0,-1,-1,0,196.162,252.482)">
                <path d="M-28.365,-8.128C-18.288,-8.128 -5.659,7.05 10.118,10.636C-5.659,15.477 -18.288,28.365 -28.365,28.365C-38.442,28.365 -46.611,20.196 -46.611,10.118C-46.611,0.041 -38.442,-8.128 -28.365,-8.128Z" style="fill:none;fill-rule:nonzero;stroke:rgb(90,180,127);stroke-width:2.38px;"/>
            </g>
        </g>
        <g transform="matrix(4.16667,0,0,4.16667,5580.7,0)">
            <g transform="matrix(1,0,0,1,263.347,104.654)">
                <path d="M0,9.764L16.987,9.764C17.265,9.766 17.415,10.021 17.429,10.049C19.354,13.871 23.314,16.493 27.886,16.493C34.349,16.493 39.588,11.254 39.588,4.791C39.588,-1.672 34.349,-6.911 27.886,-6.911C23.199,-6.911 19.155,-4.155 17.287,-0.175C17.287,-0.175 17.206,-0.007 17.006,-0.01L0.157,-0.01L-33.198,0C-33.476,-0.002 -33.627,-0.258 -33.64,-0.285C-35.566,-4.107 -39.525,-6.729 -44.097,-6.729C-50.56,-6.729 -55.799,-1.49 -55.799,4.973C-55.799,11.436 -50.56,16.675 -44.097,16.675C-39.41,16.675 -35.366,13.919 -33.498,9.939C-33.498,9.939 -33.417,9.77 -33.218,9.773L0,9.764Z" style="fill:none;fill-rule:nonzero;stroke:rgb(90,180,127);stroke-width:2.38px;"/>
            </g>
        </g>
        <g transform="matrix(4.16667,0,0,4.16667,5580.7,0)">
            <g transform="matrix(0,1,1,0,257.831,122.624)">
                <path d="M-8.011,-8.011L8.011,-8.011" style="fill:none;fill-rule:nonzero;stroke:rgb(90,180,127);stroke-width:2.38px;"/>
            </g>
        </g>
        <g transform="matrix(4.16667,0,0,4.16667,5580.7,0)">
            <g transform="matrix(0,1,1,0,268.786,122.559)">
                <path d="M-8.124,-8.124L8.124,-8.124" style="fill:none;fill-rule:nonzero;stroke:rgb(90,180,127);stroke-width:2.38px;"/>
            </g>
        </g>
    </g>
</svg>
