<?xml version="1.0" encoding="UTF-8" standalone="no"?>
<!DOCTYPE svg PUBLIC "-//W3C//DTD SVG 1.1//EN" "http://www.w3.org/Graphics/SVG/1.1/DTD/svg11.dtd">
<svg width="100%" height="100%" viewBox="0 0 1065 1173" version="1.1" xmlns="http://www.w3.org/2000/svg" xmlns:xlink="http://www.w3.org/1999/xlink" xml:space="preserve" xmlns:serif="http://www.serif.com/" style="fill-rule:evenodd;clip-rule:evenodd;stroke-miterlimit:10;">
    <g transform="matrix(1,0,0,1,-8098.11,-1837.62)">
        <g transform="matrix(4.16667,0,0,4.16667,5580.7,0)">
            <g transform="matrix(1,0,0,1,622.388,558.058)">
                <path d="M0,72.113C0,72.113 -1.336,52.891 15.191,33.255C25.954,20.467 38.816,18.655 50.495,17.328C62.175,16.001 62.616,3.981 62.881,0" style="fill:none;fill-rule:nonzero;stroke:rgb(90,180,127);stroke-width:2.38px;"/>
            </g>
        </g>
        <g transform="matrix(4.16667,0,0,4.16667,5580.7,0)">
            <g transform="matrix(1,0,0,1,726.504,577.505)">
                <path d="M0,-19.639C0,-19.639 -0.392,-9.404 5.387,-4.301C10.258,0 17.948,-0.527 17.948,-0.527L46.984,-0.792" style="fill:none;fill-rule:nonzero;stroke:rgb(90,180,127);stroke-width:2.38px;"/>
            </g>
        </g>
        <g transform="matrix(4.16667,0,0,4.16667,5580.7,0)">
            <g transform="matrix(0.236785,0.971562,0.971562,-0.236785,683.67,559.763)">
                <path d="M60.566,-49.047C60.566,-49.047 46.5,-43.303 44.214,-29.452C41.088,-10.498 55.142,-10.002 60.566,11.632C64.781,28.446 57.601,33.601 60.43,45.206C63.258,56.812 67.927,75.761 67.927,75.761" style="fill:none;fill-rule:nonzero;stroke:rgb(90,180,127);stroke-width:2.38px;"/>
            </g>
        </g>
        <g transform="matrix(4.16667,0,0,4.16667,5580.7,0)">
            <g transform="matrix(0,-1,-1,0,646.69,663.852)">
                <path d="M-28.364,-8.128C-18.287,-8.128 -5.658,7.05 10.118,10.636C-5.658,15.476 -18.287,28.364 -28.364,28.364C-38.441,28.364 -46.61,20.195 -46.61,10.118C-46.61,0.041 -38.441,-8.128 -28.364,-8.128Z" style="fill:none;fill-rule:nonzero;stroke:rgb(90,180,127);stroke-width:2.38px;"/>
            </g>
        </g>
        <g transform="matrix(4.16667,0,0,4.16667,5580.7,0)">
            <g transform="matrix(0,1,1,0,708.932,533.994)">
                <path d="M-8.011,-8.011L8.011,-8.011" style="fill:none;fill-rule:nonzero;stroke:rgb(90,180,127);stroke-width:2.38px;"/>
            </g>
        </g>
        <g transform="matrix(4.16667,0,0,4.16667,5580.7,0)">
            <g transform="matrix(0,1,1,0,719.887,533.929)">
                <path d="M-8.124,-8.124L8.124,-8.124" style="fill:none;fill-rule:nonzero;stroke:rgb(90,180,127);stroke-width:2.38px;"/>
            </g>
        </g>
        <g transform="matrix(4.16667,0,0,4.16667,5580.7,0)">
            <g transform="matrix(1,0,0,1,656.172,633.308)">
                <path d="M0,6.733C0,8.305 -1.286,9.591 -2.858,9.591L-37.167,9.591C-38.739,9.591 -40.025,8.305 -40.025,6.733L-40.025,-0C-40.025,-1.572 -38.739,-2.858 -37.167,-2.858L-2.858,-2.858C-1.286,-2.858 0,-1.572 0,-0L0,6.733Z" style="fill:none;fill-rule:nonzero;stroke:rgb(90,180,127);stroke-width:2.38px;"/>
            </g>
        </g>
        <g transform="matrix(4.16667,0,0,4.16667,5580.7,0)">
            <g transform="matrix(1,0,0,1,777.743,557.402)">
                <path d="M0,70.818C-2.416,70.818 -4.394,68.841 -4.394,66.424L-4.394,4.393C-4.394,1.977 -2.416,0 0,0L7.843,0C10.259,0 12.237,1.977 12.237,4.393L12.237,66.424C12.237,68.841 10.259,70.818 7.843,70.818L0,70.818Z" style="fill:none;fill-rule:nonzero;stroke:rgb(90,180,127);stroke-width:2.38px;"/>
            </g>
        </g>
        <g transform="matrix(4.16667,0,0,4.16667,5580.7,0)">
            <g transform="matrix(1,0,0,1,737.961,546.377)">
                <path d="M0,7.229C0,9.409 -1.784,11.193 -3.964,11.193L-59.275,11.193C-61.455,11.193 -63.239,9.409 -63.239,7.229L-63.239,0C-63.239,-2.18 -61.455,-3.964 -59.275,-3.964L-3.964,-3.964C-1.784,-3.964 0,-2.18 0,0L0,7.229Z" style="fill:none;fill-rule:nonzero;stroke:rgb(90,180,127);stroke-width:2.38px;"/>
            </g>
        </g>
        <g transform="matrix(4.16667,0,0,4.16667,5580.7,0)">
            <g transform="matrix(1,0,0,1,754.191,519.582)">
                <path d="M0,2.182C0,4.379 -1.797,6.176 -3.994,6.176L-91.705,6.176C-93.901,6.176 -95.699,4.379 -95.699,2.182L-95.699,0C-95.699,-2.196 -93.901,-3.994 -91.705,-3.994L-3.994,-3.994C-1.797,-3.994 0,-2.196 0,0L0,2.182Z" style="fill:none;fill-rule:nonzero;stroke:rgb(90,180,127);stroke-width:2.38px;"/>
            </g>
        </g>
        <g transform="matrix(4.16667,0,0,4.16667,5580.7,0)">
            <g transform="matrix(1,0,0,1,684.654,470.765)">
                <path d="M0,12.155C12.155,0 31.862,0 44.017,12.155" style="fill:none;fill-rule:nonzero;stroke:rgb(50,183,125);stroke-width:3.3px;stroke-linecap:round;stroke-linejoin:round;"/>
            </g>
        </g>
        <g transform="matrix(4.16667,0,0,4.16667,5580.7,0)">
            <g transform="matrix(1,0,0,1,673.649,453.684)">
                <path d="M0,18.232C18.232,0 47.793,0 66.025,18.232" style="fill:none;fill-rule:nonzero;stroke:rgb(50,183,125);stroke-width:3.3px;stroke-linecap:round;stroke-linejoin:round;"/>
            </g>
        </g>
        <g transform="matrix(4.16667,0,0,4.16667,5580.7,0)">
            <g transform="matrix(1,0,0,1,662.645,436.602)">
                <path d="M0,24.31C24.31,0 63.724,0 88.033,24.31" style="fill:none;fill-rule:nonzero;stroke:rgb(50,183,125);stroke-width:3.3px;stroke-linecap:round;stroke-linejoin:round;"/>
            </g>
        </g>
        <g transform="matrix(4.16667,0,0,4.16667,5580.7,0)">
            <g transform="matrix(0,-1,-1,0,706.662,489.197)">
                <path d="M-4.612,-4.612C-7.159,-4.612 -9.224,-2.547 -9.224,0C-9.224,2.547 -7.159,4.612 -4.612,4.612C-2.065,4.612 0,2.547 0,0C0,-2.547 -2.065,-4.612 -4.612,-4.612" style="fill:rgb(50,183,125);fill-rule:nonzero;"/>
            </g>
        </g>
        <g transform="matrix(4.16667,0,0,4.16667,5580.7,0)">
            <g transform="matrix(0,-1,-1,0,827.137,558.065)">
                <ellipse cx="-5.427" cy="0" rx="5.426" ry="5.427" style="fill:none;stroke:rgb(90,180,127);stroke-width:1.91px;stroke-linecap:round;"/>
            </g>
        </g>
        <g transform="matrix(4.16667,0,0,4.16667,5580.7,0)">
            <g transform="matrix(0,-1,-1,0,844.572,579.434)">
                <ellipse cx="-5.427" cy="0" rx="5.426" ry="5.427" style="fill:none;stroke:rgb(90,180,127);stroke-width:1.91px;stroke-linecap:round;"/>
            </g>
        </g>
        <g transform="matrix(4.16667,0,0,4.16667,5580.7,0)">
            <g transform="matrix(0,-1,-1,0,827.666,593.785)">
                <ellipse cx="-5.427" cy="0" rx="5.426" ry="5.427" style="fill:none;stroke:rgb(90,180,127);stroke-width:1.91px;stroke-linecap:round;"/>
            </g>
        </g>
        <g transform="matrix(4.16667,0,0,4.16667,5580.7,0)">
            <g transform="matrix(0,-1,-1,0,833.614,610.653)">
                <ellipse cx="-5.427" cy="0" rx="5.426" ry="5.427" style="fill:none;stroke:rgb(90,180,127);stroke-width:1.91px;stroke-linecap:round;"/>
            </g>
        </g>
        <g transform="matrix(4.16667,0,0,4.16667,5580.7,0)">
            <g transform="matrix(1,0,0,1,790.695,563.293)">
                <path d="M0,11.354L25.224,11.354L25.224,0L30.738,0" style="fill:none;fill-rule:nonzero;stroke:rgb(90,180,127);stroke-width:1.91px;stroke-linecap:round;"/>
            </g>
        </g>
        <g transform="matrix(4.16667,0,0,4.16667,5580.7,0)">
            <g transform="matrix(1,0,0,1,790.76,584.402)">
                <path d="M0,0L48.375,0" style="fill:none;fill-rule:nonzero;stroke:rgb(90,180,127);stroke-width:1.91px;stroke-linecap:round;"/>
            </g>
        </g>
        <g transform="matrix(4.16667,0,0,4.16667,5580.7,0)">
            <g transform="matrix(1,0,0,1,791.149,599.39)">
                <path d="M0,-7.267L11.976,-7.267L11.976,0L31.02,0" style="fill:none;fill-rule:nonzero;stroke:rgb(90,180,127);stroke-width:1.91px;stroke-linecap:round;"/>
            </g>
        </g>
        <g transform="matrix(4.16667,0,0,4.16667,5580.7,0)">
            <g transform="matrix(1,0,0,1,790.954,615.877)">
                <path d="M0,-6.873L21.109,-6.873L21.109,0L37.038,0" style="fill:none;fill-rule:nonzero;stroke:rgb(90,180,127);stroke-width:1.91px;stroke-linecap:round;"/>
            </g>
        </g>
    </g>
</svg>
